<?xml version="1.0"?>
<svg xmlns="http://www.w3.org/2000/svg" xmlns:xlink="http://www.w3.org/1999/xlink" version="1.1" id="Layer_1" x="0px" y="0px" viewBox="0 0 512 512" style="enable-background:new 0 0 512 512;" xml:space="preserve" width="512px" height="512px" class=""><g><g><path style="fill:#00DDFF" d="M502.801,187.809C472.949,79.53,373.769,0,256,0C114.616,0,0,114.616,0,256  c0,117.769,79.53,216.949,187.809,246.801L502.801,187.809z" data-original="#00DDFF" class="" data-old_color="#00E5FF"/><path style="fill:#00B7FF" d="M512,256c0-23.615-3.213-46.477-9.199-68.191L400.696,85.704L111.304,426.296l76.505,76.505  C209.522,508.787,232.385,512,256,512C397.384,512,512,397.384,512,256z" data-original="#00B7FF" class="" data-old_color="#FFFFFF"/><polygon style="fill:#021B79" points="333.913,85.704 289.391,256 333.913,426.296 400.696,426.296 400.696,85.704 " data-original="#021B79" class="" data-old_color="#021b79"/><polygon style="fill:#ECEFF1;" points="356.174,107.965 333.913,256 356.174,404.035 378.435,404.035 378.435,107.965 " data-original="#ECEFF1" class=""/><rect x="311.652" y="107.965" style="fill:#FFFFFF" width="44.522" height="296.07" data-original="#FFFFFF" class=""/><polygon style="fill:#0054FF" points="333.913,85.704 239.304,85.704 194.783,256 239.304,426.296 333.913,426.296 " data-original="#0054FF" class="" data-old_color="#004CFF"/><polygon style="fill:#021B79" points="144.696,85.704 122.435,256 144.696,426.296 239.304,426.296 239.304,85.704 " data-original="#021B79" class="" data-old_color="#021b79"/><rect x="111.304" y="85.704" style="fill:#021B79" width="33.391" height="340.591" data-original="#021B79" class="" data-old_color="#021b79"/><path style="fill:#021B79" d="M278.261,256c0,18.441,14.949,33.391,33.391,33.391h100.174V256l-66.783-22.261L278.261,256z" data-original="#021B79" class="" data-old_color="#021b79"/><path style="fill:#021B79" d="M411.826,222.609H311.652c-18.442,0-33.391,14.95-33.391,33.391h133.565V222.609z" data-original="#021B79" class="" data-old_color="#021b79"/><circle style="fill:#FFEB3B" cx="311.652" cy="256" r="11.13" data-original="#FFEB3B" class=""/></g></g> </svg>
